<svg width="20" height="20" viewBox="0 0 20 20" fill="none" xmlns="http://www.w3.org/2000/svg">
<g id="Check 1">
<g id="&#60;Group&#62;">
<path id="&#60;Group&#62;_2" d="M9.99999 2.81631C11.4208 2.81631 12.8097 3.23763 13.991 4.02698C15.1724 4.81633 16.0931 5.93827 16.6368 7.25091C17.1805 8.56356 17.3228 10.008 17.0456 11.4015C16.7684 12.7949 16.0843 14.075 15.0796 15.0796C14.075 16.0843 12.7949 16.7684 11.4015 17.0456C10.008 17.3228 8.56356 17.1805 7.25091 16.6368C5.93827 16.0931 4.81633 15.1724 4.02698 13.991C3.23763 12.8097 2.81631 11.4208 2.81631 9.99999C2.81362 9.05586 2.99759 8.12051 3.35765 7.24773C3.71771 6.37495 4.24675 5.58196 4.91436 4.91436C5.58196 4.24675 6.37495 3.71771 7.24773 3.35765C8.12051 2.99759 9.05586 2.81362 9.99999 2.81631Z" fill="#25C26E"/>
<path id="&#60;Group&#62;_3" d="M13.9796 8.02042L8.87753 13.1225L6.02039 10.2857L7.18365 9.14287L8.87753 10.8163L12.8163 6.87756L13.9796 8.02042Z" fill="#D4E1F4"/>
</g>
</g>
</svg>
