<svg width="6" height="4" viewBox="0 0 6 4" fill="none" xmlns="http://www.w3.org/2000/svg">
<path d="M5.49997 0.584971C5.40629 0.491846 5.27957 0.439575 5.14747 0.439575C5.01538 0.439575 4.88866 0.491846 4.79497 0.584971L2.99997 2.35497L1.22997 0.584971C1.13629 0.491846 1.00957 0.439575 0.877474 0.439575C0.745381 0.439575 0.618656 0.491846 0.524974 0.584971C0.47811 0.631453 0.440913 0.686753 0.415529 0.747683C0.390144 0.808613 0.377075 0.873966 0.377075 0.939971C0.377075 1.00598 0.390144 1.07133 0.415529 1.13226C0.440913 1.19319 0.47811 1.24849 0.524974 1.29497L2.64497 3.41497C2.69146 3.46184 2.74676 3.49903 2.80769 3.52442C2.86862 3.5498 2.93397 3.56287 2.99997 3.56287C3.06598 3.56287 3.13133 3.5498 3.19226 3.52442C3.25319 3.49903 3.30849 3.46184 3.35497 3.41497L5.49997 1.29497C5.54684 1.24849 5.58404 1.19319 5.60942 1.13226C5.6348 1.07133 5.64787 1.00598 5.64787 0.939971C5.64787 0.873966 5.6348 0.808613 5.60942 0.747683C5.58404 0.686753 5.54684 0.631453 5.49997 0.584971Z" fill="#A7B1BC"/>
</svg>
